<svg xmlns="http://www.w3.org/2000/svg" xml:space="preserve" style="fill-rule:evenodd;clip-rule:evenodd;stroke-linejoin:round;stroke-miterlimit:2" viewBox="0 0 810 107">
    <path d="M371.6 288.6q.45 0 .9.3c.6.3 1 .7 1.3 1.2s.4 1 .4 1.7c0 .6-.1 1.2-.4 1.7s-.7.9-1.3 1.2c-.5.3-1.1.4-1.8.4s-1.3-.1-1.8-.4c-.6-.3-1-.7-1.3-1.2s-.4-1.1-.4-1.7c0-.7.1-1.2.4-1.7s.7-.9 1.3-1.2c.4-.2.9-.4 1.5-.4 1.6-.9 3.6-1.6 5.8-2.2 4.7-1.1 10.1-1.5 13.4-1.5 6.1 0 11.3.9 15.3 2.4h.6v.2c1.3.6 2.5 1.2 3.6 1.9.7-.7 1.6-1.1 2.6-1.1 2 0 3.6 1.6 3.6 3.5 0 .8-.3 1.6-.7 2.2.5.3 1 .5 1.6.7v-5.9h1.8v.8c.2-.2.4-.4.7-.6q.6-.3 1.5-.3v1.7h-.4c-.5 0-.9.1-1.2.4s-.5.8-.5 1.4v2.8c1.2.1 2.2.1 3.1-.1v-6.1h1.9v5.7c.9-.3 1.7-.6 2.4-1 1.1-.4 2.1-.9 3.2-1.1.4-1 1.2-1.9 2.1-2.7 1.9-1.7 4.2-2.6 4.2-2.6.1-.1.3 0 .4.1 0 .2 0 .4-.2.4 0 0-2.2 1-4 2.5-.7.7-1.4 1.4-1.8 2.3 1.1-.1 1.8.1 2.2.6.3.3.5.7.5 1.2 0 1.1-1.2 1.9-2.1 1.9-1.3 0-1.8-1.3-1.7-2.2 0-.3.1-.5.1-.8-.9.2-1.7.6-2.6 1-.8.4-1.7.8-2.7 1.1h-.2c-1.3.4-2.8.6-4.8.4-1.8-.1-3-.6-3.9-1.1-.7.6-1.5.9-2.5.9-2 0-3.6-1.6-3.6-3.6 0-.7.3-1.4.6-1.9-.5-.4-1-.7-1.6-1v1.3h-1.6v2.8c0 .2 0 .5.2.6.1.2.3.2.6.2s.5-.1.7-.2l.5 1.3c-.2.1-.4.2-.7.3-.2.1-.5.1-.8.1q-1.2 0-1.8-.6c-.4-.4-.6-.9-.6-1.7v-2.8h-1v-1.4h1v-1.3c-3.8-1.3-8.5-2-14-2-3.2 0-8.6.4-13.2 1.5-1.8.5-3.4 1-4.8 1.7m35.1.1-1.2-.6v.6zm22.4 4.2c-.1.3-.1.6-.2 1 0 .6.2 1.5 1.2 1.5.6 0 1.4-.5 1.3-1.3 0-.3 0-.6-.2-.8-.3-.3-.9-.5-1.8-.4zm-15.3 0c.8-1.1.8-2.4.8-2.4s-.9 1.3-2.2 2.1c-1.4.8-3.3.9-3.3.9s1.5.8 3 .5c-.1-.2-.1-.4-.1-.6 0-.6.4-1 1-1 .4 0 .7.2.8.5m-43.1.7c.3 0 .6-.1.8-.2.3-.2.5-.4.6-.7.2-.2.2-.5.2-.9s0-.7-.2-1q-.15-.3-.6-.6c-.2-.1-.5-.2-.8-.2s-.6.1-.8.2q-.45.3-.6.6c-.2.3-.3.6-.3 1q0 .6.3.9c.1.3.3.5.6.7.2.1.5.2.8.2m-14.2.7c-.1.2-.3.3-.6.5-.4.2-.9.3-1.4.3s-1-.1-1.4-.3-.7-.5-1-.9c-.2-.5-.3-1-.3-1.7v-3.6h1.9v3.3q0 .9.3 1.2c.2.3.5.4 1 .4.2 0 .5-.1.7-.2.3-.1.4-.3.6-.6.1-.2.1-.5.1-.9v-3.2h1.9v6.4h-1.8zm5-5.1c.2-.1.4-.3.6-.4q.6-.3 1.5-.3c.5 0 .9.1 1.4.3q.6.3.9.9c.2.4.4 1 .4 1.6v3.7h-1.9v-3.4c0-.5-.1-.9-.4-1.1-.2-.3-.5-.4-.9-.4-.3 0-.6.1-.8.2-.3.1-.4.3-.6.5-.1.3-.2.6-.2 1v3.2h-1.8v-8.9h1.8zm18.4 5.1c-.2.2-.4.3-.7.5-.4.2-.8.3-1.3.3q-.9 0-1.5-.3c-.4-.2-.7-.5-1-.9-.2-.5-.3-1-.3-1.7v-3.6h1.9v3.3q0 .9.3 1.2c.2.3.6.4 1 .4.3 0 .5-.1.7-.2.3-.1.4-.3.6-.6.1-.2.2-.5.2-.9v-3.2h1.8v6.4h-1.7zm-40.1.7v-6.8h-2.7v-1.6h7.3v1.6h-2.7v6.8zm7.6.1c-.7 0-1.3-.1-1.8-.4-.6-.3-1-.7-1.3-1.2s-.5-1.1-.5-1.7c0-.7.2-1.2.5-1.7s.7-.9 1.3-1.2c.5-.3 1.1-.4 1.8-.4s1.3.1 1.8.4 1 .7 1.3 1.2.4 1 .4 1.7c0 .6-.1 1.2-.4 1.7s-.8.9-1.3 1.2-1.1.4-1.8.4m0-1.5c.3 0 .6-.1.8-.2.3-.2.5-.4.6-.7.2-.2.2-.5.2-.9s0-.7-.2-1q-.15-.3-.6-.6c-.2-.1-.5-.2-.8-.2s-.6.1-.9.2c-.2.2-.4.4-.5.6-.2.3-.3.6-.3 1q0 .6.3.9c.1.3.3.5.5.7.3.1.6.2.9.2m47.5.7c-.1.3-.3.4-.5.6-.4.2-.9.3-1.4.3s-1-.1-1.3-.2c-.4-.2-.7-.4-.9-.7-.1-.3-.2-.7-.2-1 0-.4.1-.8.2-1 .2-.3.5-.6.9-.7.4-.2 1-.3 1.6-.3h1.5q0-.6-.3-.9-.45-.3-1.2-.3c-.3 0-.6 0-1 .1-.3.1-.6.3-.8.5l-.7-1.4c.4-.2.8-.4 1.3-.5.5-.2 1-.2 1.5-.2 1 0 1.7.2 2.3.7.5.4.8 1.2.8 2.1v3.7h-1.8zm-.1-1.9h-1.3c-.4 0-.7.1-.9.2-.1.2-.2.4-.2.6s.1.4.3.5c.2.2.4.3.7.3.4 0 .6-.1.9-.3.2-.1.4-.3.5-.6zm3.7-2.3h-1v-1.4h1v-1.5h1.8v1.5h1.6v1.4h-1.6v2.8c0 .2.1.5.3.6.1.2.3.2.5.2.3 0 .6-.1.8-.2l.5 1.3c-.2.1-.4.2-.7.3s-.5.1-.8.1q-1.2 0-1.8-.6c-.4-.4-.6-.9-.6-1.7zm-12.2 5.2c-.7 0-1.3-.1-1.9-.3s-1.1-.4-1.5-.7l.6-1.5c.4.3.8.5 1.3.7.5.1 1 .2 1.5.2.4 0 .7 0 .9-.1q.45-.15.6-.3c.1-.2.1-.3.1-.5s-.1-.4-.2-.5c-.2-.2-.4-.3-.7-.4-.3 0-.6-.1-1-.2-.3-.1-.7-.2-1-.3-.4-.1-.7-.2-1-.4s-.5-.4-.7-.7-.3-.7-.3-1.1c0-.5.2-.9.4-1.3.3-.4.7-.7 1.2-1 .5-.2 1.2-.3 2-.3.5 0 1 0 1.5.2.6.1 1 .3 1.4.5l-.6 1.5c-.4-.2-.8-.4-1.2-.5s-.7-.2-1.1-.2-.7.1-.9.2q-.45.15-.6.3c-.1.1-.1.3-.1.5s.1.4.2.5c.2.1.5.3.7.3.3.1.6.2 1 .3.3.1.7.1 1 .3.4.1.7.2 1 .4.3.1.5.4.7.7s.3.6.3 1.1c0 .4-.2.9-.4 1.3-.3.3-.7.7-1.2.9s-1.2.4-2 .4m35.8-7.5c-.3 0-.6-.1-.8-.3s-.3-.5-.3-.8.1-.5.3-.7.5-.3.8-.3q.6 0 .9.3c.2.1.3.4.3.7s-.1.6-.3.8q-.3.3-.9.3" style="fill:#fff" transform="translate(-2714.85 -2289.385)scale(8.07125)"/>
</svg>
