<?xml version="1.0" encoding="UTF-8" standalone="no"?>
<!DOCTYPE svg PUBLIC "-//W3C//DTD SVG 1.1//EN" "http://www.w3.org/Graphics/SVG/1.1/DTD/svg11.dtd">
<svg width="100%" height="100%" viewBox="0 0 810 107" version="1.1" xmlns="http://www.w3.org/2000/svg" xmlns:xlink="http://www.w3.org/1999/xlink" xml:space="preserve" xmlns:serif="http://www.serif.com/" style="fill-rule:evenodd;clip-rule:evenodd;stroke-linejoin:round;stroke-miterlimit:2;">
    <g transform="matrix(1,0,0,1,0,-797.917551)">
        <g id="アートボード2" transform="matrix(0.968583,0,0,0.683177,-24.032043,559.819527)">
            <rect x="24.8" y="348.5" width="835.5" height="156.3" style="fill:none;"/>
            <g transform="matrix(8.333051,0,0,11.814289,-2778.097321,-3002.570178)">
                <path d="M371.6,288.6C371.9,288.6 372.2,288.7 372.5,288.9C373.1,289.2 373.5,289.6 373.8,290.1C374.1,290.6 374.2,291.1 374.2,291.8C374.2,292.4 374.1,293 373.8,293.5C373.5,294 373.1,294.4 372.5,294.7C372,295 371.4,295.1 370.7,295.1C370,295.1 369.4,295 368.9,294.7C368.3,294.4 367.9,294 367.6,293.5C367.3,293 367.2,292.4 367.2,291.8C367.2,291.1 367.3,290.6 367.6,290.1C367.9,289.6 368.3,289.2 368.9,288.9C369.3,288.7 369.8,288.5 370.4,288.5C372,287.6 374,286.9 376.2,286.3C380.9,285.2 386.3,284.8 389.6,284.8C395.7,284.8 400.9,285.7 404.9,287.2L405.5,287.2L405.5,287.4C406.8,288 408,288.6 409.1,289.3C409.8,288.6 410.7,288.2 411.7,288.2C413.7,288.2 415.3,289.8 415.3,291.7C415.3,292.5 415,293.3 414.6,293.9C415.1,294.2 415.6,294.4 416.2,294.6L416.2,288.7L418,288.7L418,289.5C418.2,289.3 418.4,289.1 418.7,288.9C419.1,288.7 419.6,288.6 420.2,288.6L420.2,290.3C420.2,290.3 420.1,290.3 420,290.3C420,290.3 419.9,290.3 419.8,290.3C419.3,290.3 418.9,290.4 418.6,290.7C418.3,291 418.1,291.5 418.1,292.1L418.1,294.9C418.1,294.9 418.1,294.9 418.1,294.9C419.3,295 420.3,295 421.2,294.8L421.2,288.7L423.1,288.7L423.1,294.4C424,294.1 424.8,293.8 425.5,293.4C426.6,293 427.6,292.5 428.7,292.3C429.1,291.3 429.9,290.4 430.8,289.6C432.7,287.9 435,287 435,287C435.1,286.9 435.3,287 435.4,287.1C435.4,287.3 435.4,287.5 435.2,287.5C435.2,287.5 433,288.5 431.2,290C430.5,290.7 429.8,291.4 429.4,292.3C430.5,292.2 431.2,292.4 431.6,292.9C431.9,293.2 432.1,293.6 432.1,294.1C432.1,295.2 430.9,296 430,296C428.7,296 428.2,294.7 428.3,293.8C428.3,293.5 428.4,293.3 428.4,293C427.5,293.2 426.7,293.6 425.8,294C425,294.4 424.1,294.8 423.1,295.1L423.1,295.1L422.9,295.1C421.6,295.5 420.1,295.7 418.1,295.5C416.3,295.4 415.1,294.9 414.2,294.4C413.5,295 412.7,295.3 411.7,295.3C409.7,295.3 408.1,293.7 408.1,291.7C408.1,291 408.4,290.3 408.7,289.8C408.2,289.4 407.7,289.1 407.1,288.8L407.1,290.1L405.5,290.1L405.5,292.9C405.5,293.1 405.5,293.4 405.7,293.5C405.8,293.7 406,293.7 406.3,293.7C406.6,293.7 406.8,293.6 407,293.5L407.5,294.8C407.3,294.9 407.1,295 406.8,295.1C406.6,295.2 406.3,295.2 406,295.2C405.2,295.2 404.6,295 404.2,294.6C403.8,294.2 403.6,293.7 403.6,292.9L403.6,290.1L402.6,290.1L402.6,288.7L403.6,288.7L403.6,287.4C399.8,286.1 395.1,285.4 389.6,285.4C386.4,285.4 381,285.8 376.4,286.9C374.6,287.4 373,287.9 371.6,288.6ZM406.7,288.7C406.3,288.5 405.9,288.3 405.5,288.1L405.5,288.7L406.7,288.7ZM429.1,292.9C429,293.2 429,293.5 428.9,293.9C428.9,294.5 429.1,295.4 430.1,295.4C430.7,295.4 431.5,294.9 431.4,294.1C431.4,293.8 431.4,293.5 431.2,293.3C430.9,293 430.3,292.8 429.4,292.9C429.3,292.9 429.2,292.9 429.1,292.9ZM413.8,292.9C414.6,291.8 414.6,290.5 414.6,290.5C414.6,290.5 413.7,291.8 412.4,292.6C411,293.4 409.1,293.5 409.1,293.5C409.1,293.5 410.6,294.3 412.1,294C412,293.8 412,293.6 412,293.4C412,292.8 412.4,292.4 413,292.4C413.4,292.4 413.7,292.6 413.8,292.9ZM370.7,293.6C371,293.6 371.3,293.5 371.5,293.4C371.8,293.2 372,293 372.1,292.7C372.3,292.5 372.3,292.2 372.3,291.8C372.3,291.4 372.3,291.1 372.1,290.8C372,290.6 371.8,290.4 371.5,290.2C371.3,290.1 371,290 370.7,290C370.4,290 370.1,290.1 369.9,290.2C369.6,290.4 369.4,290.6 369.3,290.8C369.1,291.1 369,291.4 369,291.8C369,292.2 369.1,292.5 369.3,292.7C369.4,293 369.6,293.2 369.9,293.4C370.1,293.5 370.4,293.6 370.7,293.6ZM356.5,294.3C356.4,294.5 356.2,294.6 355.9,294.8C355.5,295 355,295.1 354.5,295.1C354,295.1 353.5,295 353.1,294.8C352.7,294.6 352.4,294.3 352.1,293.9C351.9,293.4 351.8,292.9 351.8,292.2L351.8,288.6L353.7,288.6L353.7,291.9C353.7,292.5 353.8,292.9 354,293.1C354.2,293.4 354.5,293.5 355,293.5C355.2,293.5 355.5,293.4 355.7,293.3C356,293.2 356.1,293 356.3,292.7C356.4,292.5 356.4,292.2 356.4,291.8L356.4,288.6L358.3,288.6L358.3,295L356.5,295L356.5,294.3ZM361.5,289.2C361.7,289.1 361.9,288.9 362.1,288.8C362.5,288.6 363,288.5 363.6,288.5C364.1,288.5 364.5,288.6 365,288.8C365.4,289 365.7,289.3 365.9,289.7C366.1,290.1 366.3,290.7 366.3,291.3L366.3,295L364.4,295L364.4,291.6C364.4,291.1 364.3,290.7 364,290.5C363.8,290.2 363.5,290.1 363.1,290.1C362.8,290.1 362.5,290.2 362.3,290.3C362,290.4 361.9,290.6 361.7,290.8C361.6,291.1 361.5,291.4 361.5,291.8L361.5,295L359.7,295L359.7,286.1L361.5,286.1L361.5,289.2ZM379.9,294.3C379.7,294.5 379.5,294.6 379.2,294.8C378.8,295 378.4,295.1 377.9,295.1C377.3,295.1 376.8,295 376.4,294.8C376,294.6 375.7,294.3 375.4,293.9C375.2,293.4 375.1,292.9 375.1,292.2L375.1,288.6L377,288.6L377,291.9C377,292.5 377.1,292.9 377.3,293.1C377.5,293.4 377.9,293.5 378.3,293.5C378.6,293.5 378.8,293.4 379,293.3C379.3,293.2 379.4,293 379.6,292.7C379.7,292.5 379.8,292.2 379.8,291.8L379.8,288.6L381.6,288.6L381.6,295L379.9,295L379.9,294.3ZM339.8,295L339.8,288.2L337.1,288.2L337.1,286.6L344.4,286.6L344.4,288.2L341.7,288.2L341.7,295L339.8,295ZM347.4,295.1C346.7,295.1 346.1,295 345.6,294.7C345,294.4 344.6,294 344.3,293.5C344,293 343.8,292.4 343.8,291.8C343.8,291.1 344,290.6 344.3,290.1C344.6,289.6 345,289.2 345.6,288.9C346.1,288.6 346.7,288.5 347.4,288.5C348.1,288.5 348.7,288.6 349.2,288.9C349.7,289.2 350.2,289.6 350.5,290.1C350.8,290.6 350.9,291.1 350.9,291.8C350.9,292.4 350.8,293 350.5,293.5C350.2,294 349.7,294.4 349.2,294.7C348.7,295 348.1,295.1 347.4,295.1ZM347.4,293.6C347.7,293.6 348,293.5 348.2,293.4C348.5,293.2 348.7,293 348.8,292.7C349,292.5 349,292.2 349,291.8C349,291.4 349,291.1 348.8,290.8C348.7,290.6 348.5,290.4 348.2,290.2C348,290.1 347.7,290 347.4,290C347.1,290 346.8,290.1 346.5,290.2C346.3,290.4 346.1,290.6 346,290.8C345.8,291.1 345.7,291.4 345.7,291.8C345.7,292.2 345.8,292.5 346,292.7C346.1,293 346.3,293.2 346.5,293.4C346.8,293.5 347.1,293.6 347.4,293.6ZM394.9,294.3C394.8,294.6 394.6,294.7 394.4,294.9C394,295.1 393.5,295.2 393,295.2C392.5,295.2 392,295.1 391.7,295C391.3,294.8 391,294.6 390.8,294.3C390.7,294 390.6,293.6 390.6,293.3C390.6,292.9 390.7,292.5 390.8,292.3C391,292 391.3,291.7 391.7,291.6C392.1,291.4 392.7,291.3 393.3,291.3L394.8,291.3C394.8,290.9 394.7,290.6 394.5,290.4C394.2,290.2 393.8,290.1 393.3,290.1C393,290.1 392.7,290.1 392.3,290.2C392,290.3 391.7,290.5 391.5,290.7L390.8,289.3C391.2,289.1 391.6,288.9 392.1,288.8C392.6,288.6 393.1,288.6 393.6,288.6C394.6,288.6 395.3,288.8 395.9,289.3C396.4,289.7 396.7,290.5 396.7,291.4L396.7,295.1L394.9,295.1L394.9,294.3ZM394.8,292.4L393.5,292.4C393.1,292.4 392.8,292.5 392.6,292.6C392.5,292.8 392.4,293 392.4,293.2C392.4,293.4 392.5,293.6 392.7,293.7C392.9,293.9 393.1,294 393.4,294C393.8,294 394,293.9 394.3,293.7C394.5,293.6 394.7,293.4 394.8,293.1L394.8,292.4ZM398.5,290.1L397.5,290.1L397.5,288.7L398.5,288.7L398.5,287.2L400.3,287.2L400.3,288.7L401.9,288.7L401.9,290.1L400.3,290.1L400.3,292.9C400.3,293.1 400.4,293.4 400.6,293.5C400.7,293.7 400.9,293.7 401.1,293.7C401.4,293.7 401.7,293.6 401.9,293.5L402.4,294.8C402.2,294.9 402,295 401.7,295.1C401.4,295.2 401.2,295.2 400.9,295.2C400.1,295.2 399.5,295 399.1,294.6C398.7,294.2 398.5,293.7 398.5,292.9L398.5,290.1ZM386.3,295.3C385.6,295.3 385,295.2 384.4,295C383.8,294.8 383.3,294.6 382.9,294.3L383.5,292.8C383.9,293.1 384.3,293.3 384.8,293.5C385.3,293.6 385.8,293.7 386.3,293.7C386.7,293.7 387,293.7 387.2,293.6C387.5,293.5 387.7,293.4 387.8,293.3C387.9,293.1 387.9,293 387.9,292.8C387.9,292.6 387.8,292.4 387.7,292.3C387.5,292.1 387.3,292 387,291.9C386.7,291.9 386.4,291.8 386,291.7C385.7,291.6 385.3,291.5 385,291.4C384.6,291.3 384.3,291.2 384,291C383.7,290.8 383.5,290.6 383.3,290.3C383.1,290 383,289.6 383,289.2C383,288.7 383.2,288.3 383.4,287.9C383.7,287.5 384.1,287.2 384.6,286.9C385.1,286.7 385.8,286.6 386.6,286.6C387.1,286.6 387.6,286.6 388.1,286.8C388.7,286.9 389.1,287.1 389.5,287.3L388.9,288.8C388.5,288.6 388.1,288.4 387.7,288.3C387.3,288.2 387,288.1 386.6,288.1C386.2,288.1 385.9,288.2 385.7,288.3C385.4,288.4 385.2,288.5 385.1,288.6C385,288.7 385,288.9 385,289.1C385,289.3 385.1,289.5 385.2,289.6C385.4,289.7 385.7,289.9 385.9,289.9C386.2,290 386.5,290.1 386.9,290.2C387.2,290.3 387.6,290.3 387.9,290.5C388.3,290.6 388.6,290.7 388.9,290.9C389.2,291 389.4,291.3 389.6,291.6C389.8,291.9 389.9,292.2 389.9,292.7C389.9,293.1 389.7,293.6 389.5,294C389.2,294.3 388.8,294.7 388.3,294.9C387.8,295.1 387.1,295.3 386.3,295.3ZM422.1,287.8C421.8,287.8 421.5,287.7 421.3,287.5C421.1,287.3 421,287 421,286.7C421,286.4 421.1,286.2 421.3,286C421.5,285.8 421.8,285.7 422.1,285.7C422.5,285.7 422.8,285.8 423,286C423.2,286.1 423.3,286.4 423.3,286.7C423.3,287 423.2,287.3 423,287.5C422.8,287.7 422.5,287.8 422.1,287.8Z" style="fill:white;"/>
            </g>
        </g>
    </g>
</svg>
